<?xml version="1.0" standalone="no"?>
<!DOCTYPE svg PUBLIC "-//W3C//DTD SVG 20010904//EN"
 "http://www.w3.org/TR/2001/REC-SVG-20010904/DTD/svg10.dtd">
<svg version="1.0" xmlns="http://www.w3.org/2000/svg"
 width="192.000000pt" height="192.000000pt" viewBox="0 0 192.000000 192.000000"
 preserveAspectRatio="xMidYMid meet">

<g transform="translate(0.000000,192.000000) scale(0.100000,-0.100000)"
fill="#FC3B03" stroke="none">
<path d="M575 1649 c-70 -34 -64 -23 -203 -414 -27 -77 -72 -203 -100 -280
-168 -469 -212 -600 -212 -631 0 -89 53 -137 155 -142 61 -3 75 0 105 20 43
29 54 54 195 458 18 52 57 160 85 240 29 80 56 160 62 178 13 46 34 40 53 -15
10 -27 21 -57 25 -68 12 -29 54 -144 94 -260 45 -130 83 -231 101 -265 45 -87
265 -95 324 -11 18 24 59 132 139 361 16 47 36 86 43 88 10 2 27 -35 54 -114
57 -169 83 -194 199 -194 58 0 69 3 99 30 43 37 61 78 54 127 -4 33 -69 228
-127 378 -10 28 -35 97 -55 155 -56 164 -64 179 -110 206 -34 19 -55 24 -114
24 -44 0 -83 -6 -101 -15 -31 -16 -74 -68 -83 -100 -8 -31 -105 -304 -128
-362 -12 -29 -25 -53 -29 -53 -5 0 -20 30 -33 68 -33 89 -117 324 -157 439
-35 102 -54 127 -114 154 -57 26 -167 25 -221 -2z"/>
</g>
</svg>
