<?xml version="1.0" standalone="no"?>
<!DOCTYPE svg PUBLIC "-//W3C//DTD SVG 20010904//EN"
 "http://www.w3.org/TR/2001/REC-SVG-20010904/DTD/svg10.dtd">
<svg version="1.0" xmlns="http://www.w3.org/2000/svg"
 width="403.000000pt" height="124.000000pt" viewBox="0 0 403.000000 124.000000"
 preserveAspectRatio="xMidYMid meet">

<g transform="translate(0.000000,124.000000) scale(0.100000,-0.100000)"
fill="#FC3B03" stroke="none">
<path d="M344 1056 c-40 -17 -36 -11 -88 -158 -24 -67 -69 -195 -100 -283 -32
-88 -73 -202 -92 -253 -19 -51 -34 -101 -34 -112 0 -11 13 -34 29 -52 25 -29
35 -33 75 -32 77 2 72 -7 201 354 36 102 68 191 71 199 8 25 20 0 85 -183 34
-99 72 -191 84 -204 18 -21 33 -26 83 -30 57 -4 63 -2 90 24 19 20 42 69 73
156 24 71 47 128 50 128 3 0 17 -32 30 -71 31 -92 57 -119 116 -119 36 0 50 6
74 29 16 16 29 40 29 54 0 20 -62 203 -136 405 -19 51 -54 72 -118 72 -71 0
-91 -24 -145 -179 -26 -73 -50 -133 -55 -134 -5 -1 -19 30 -33 68 -100 284
-106 297 -137 316 -37 22 -107 24 -152 5z"/>
<path d="M1760 695 l0 -295 50 0 50 0 0 264 0 264 -26 31 c-16 19 -35 31 -50
31 l-24 0 0 -295z"/>
<path d="M2520 695 l0 -295 113 0 c97 0 119 3 162 24 83 39 125 103 125 191 0
128 -94 214 -232 215 l-68 0 0 51 c0 43 -5 55 -29 80 -16 16 -39 29 -50 29
-21 0 -21 -3 -21 -295z m264 5 c18 -17 37 -42 40 -56 10 -37 -10 -89 -45 -119
-26 -21 -41 -25 -95 -25 l-64 0 0 115 0 115 65 0 c57 0 68 -3 99 -30z"/>
<path d="M1212 677 c3 -138 4 -145 30 -183 47 -67 90 -89 173 -89 61 0 77 4
113 28 23 15 54 46 69 69 27 39 28 48 31 180 l4 138 -25 0 c-14 0 -35 -9 -48
-19 -22 -18 -24 -29 -29 -129 -5 -106 -6 -112 -34 -141 -24 -25 -38 -31 -74
-31 -90 0 -125 62 -121 210 2 58 0 65 -25 87 -15 13 -36 23 -47 23 -20 0 -20
-5 -17 -143z"/>
<path d="M2116 810 c-38 -12 -104 -76 -122 -117 -30 -70 -14 -156 42 -222 49
-58 91 -71 242 -71 113 0 132 2 132 16 0 56 -57 84 -172 84 -68 0 -87 4 -115
23 -18 12 -33 25 -33 29 0 3 56 8 124 10 141 3 166 14 199 81 23 46 14 98 -24
141 -27 31 -28 31 -136 33 -59 1 -121 -2 -137 -7z m200 -94 c15 -12 17 -18 8
-33 -6 -10 -22 -21 -35 -24 -35 -10 -187 -10 -193 -1 -7 12 44 59 69 65 45 11
132 7 151 -7z"/>
<path d="M3032 677 c3 -139 4 -145 32 -185 44 -64 88 -86 171 -86 62 -1 75 3
114 29 86 58 100 98 101 273 l0 112 -25 0 c-14 0 -37 -11 -50 -25 -23 -22 -25
-32 -25 -115 0 -132 -31 -180 -116 -180 -34 0 -49 6 -72 29 -33 33 -42 71 -42
178 0 65 -2 73 -26 92 -15 12 -35 21 -46 21 -19 0 -19 -7 -16 -143z"/>
<path d="M3566 807 c-17 -13 -14 -23 60 -171 l79 -158 -58 -108 c-31 -59 -57
-115 -57 -124 0 -9 11 -22 25 -28 22 -10 29 -9 44 8 26 26 101 165 205 379 95
195 97 208 34 213 l-35 3 -53 -105 c-29 -59 -55 -106 -59 -106 -3 1 -24 40
-45 88 -22 48 -47 95 -55 105 -17 20 -60 22 -85 4z"/>
</g>
</svg>
